<svg width="30" height="29" viewBox="0 0 30 29" fill="#000000" xmlns="http://www.w3.org/2000/svg">
<path d="M30 3.75C30 2.75544 29.6049 1.80161 28.9016 1.09835C28.1984 0.395088 27.2446 0 26.25 0L3.75 0C2.75544 0 1.80161 0.395088 1.09835 1.09835C0.395088 1.80161 0 2.75544 0 3.75L0 18.75C0 19.7446 0.395088 20.6984 1.09835 21.4017C1.80161 22.1049 2.75544 22.5 3.75 22.5H21.7238C22.221 22.5001 22.6978 22.6977 23.0494 23.0494L28.3988 28.3988C28.5298 28.5301 28.6968 28.6196 28.8787 28.656C29.0606 28.6924 29.2492 28.6739 29.4206 28.6031C29.5921 28.5322 29.7386 28.4121 29.8418 28.2579C29.9449 28.1037 30 27.9224 30 27.7369V3.75ZM9.375 11.25C9.375 11.7473 9.17746 12.2242 8.82582 12.5758C8.47419 12.9275 7.99728 13.125 7.5 13.125C7.00272 13.125 6.52581 12.9275 6.17417 12.5758C5.82254 12.2242 5.625 11.7473 5.625 11.25C5.625 10.7527 5.82254 10.2758 6.17417 9.92418C6.52581 9.57255 7.00272 9.375 7.5 9.375C7.99728 9.375 8.47419 9.57255 8.82582 9.92418C9.17746 10.2758 9.375 10.7527 9.375 11.25ZM16.875 11.25C16.875 11.7473 16.6775 12.2242 16.3258 12.5758C15.9742 12.9275 15.4973 13.125 15 13.125C14.5027 13.125 14.0258 12.9275 13.6742 12.5758C13.3225 12.2242 13.125 11.7473 13.125 11.25C13.125 10.7527 13.3225 10.2758 13.6742 9.92418C14.0258 9.57255 14.5027 9.375 15 9.375C15.4973 9.375 15.9742 9.57255 16.3258 9.92418C16.6775 10.2758 16.875 10.7527 16.875 11.25ZM22.5 13.125C22.0027 13.125 21.5258 12.9275 21.1742 12.5758C20.8225 12.2242 20.625 11.7473 20.625 11.25C20.625 10.7527 20.8225 10.2758 21.1742 9.92418C21.5258 9.57255 22.0027 9.375 22.5 9.375C22.9973 9.375 23.4742 9.57255 23.8258 9.92418C24.1775 10.2758 24.375 10.7527 24.375 11.25C24.375 11.7473 24.1775 12.2242 23.8258 12.5758C23.4742 12.9275 22.9973 13.125 22.5 13.125Z" fill="white"/>
</svg>
